<svg height="512" viewBox="0 0 128 128" width="512" xmlns="http://www.w3.org/2000/svg"><g id="Circle_Grid" data-name="Circle Grid"><circle cx="64" cy="64" fill="#3b5059" r="64"/></g><g id="icon"><g fill="#69b0ee"><path d="m28.229 70.362h-4.191c0-15.119 12.664-27.893 27.652-27.893a27.269 27.269 0 0 1 27.239 27.238h-4.191a23.074 23.074 0 0 0 -23.048-23.047c-12.717 0-23.461 10.854-23.461 23.702z"/><path d="m76.1 97.993a27.269 27.269 0 0 1 -27.236-27.238h4.191a23.073 23.073 0 0 0 23.045 23.045c12.718 0 23.462-10.854 23.462-23.7h4.191c.002 15.119-12.662 27.893-27.653 27.893z"/><path d="m103.329 69.838h-4.19a35.455 35.455 0 1 0 -70.91 0h-4.191a39.646 39.646 0 1 1 79.291 0z"/></g><circle cx="51.69" cy="70.231" fill="#f6c863" r="7.071"/><circle cx="76.31" cy="70.231" fill="#ef5261" r="7.071"/><circle cx="27.071" cy="70.231" fill="#dbd8dd" r="7.071"/><circle cx="100.929" cy="70.231" fill="#2cbfae" r="7.071"/></g></svg>